<?xml version="1.0" encoding="UTF-8" standalone="no"?>
<!-- Generated by graphviz version 2.30.1 (20130221.2233)
 -->

<!-- Title: PeerStates Pages: 1 -->

<svg
   xmlns:dc="http://purl.org/dc/elements/1.1/"
   xmlns:cc="http://creativecommons.org/ns#"
   xmlns:rdf="http://www.w3.org/1999/02/22-rdf-syntax-ns#"
   xmlns:svg="http://www.w3.org/2000/svg"
   xmlns="http://www.w3.org/2000/svg"
   xmlns:sodipodi="http://sodipodi.sourceforge.net/DTD/sodipodi-0.dtd"
   xmlns:inkscape="http://www.inkscape.org/namespaces/inkscape"
   width="1138.9375"
   height="729.54285"
   viewBox="0 0 911.15002 583.36519"
   id="svg2"
   version="1.1"
   inkscape:version="0.48.2 r9819"
   sodipodi:docname="peer_states.svg"
   inkscape:export-filename="/Users/engel/dev/riak_ee/deps/riak_ensemble/doc/peer_states.png"
   inkscape:export-xdpi="90"
   inkscape:export-ydpi="90">
  <metadata
     id="metadata311">
    <rdf:RDF>
      <cc:Work
         rdf:about="">
        <dc:format>image/svg+xml</dc:format>
        <dc:type
           rdf:resource="http://purl.org/dc/dcmitype/StillImage" />
        <dc:title></dc:title>
      </cc:Work>
    </rdf:RDF>
  </metadata>
  <defs
     id="defs309">
    <marker
       inkscape:stockid="TriangleOutL"
       orient="auto"
       refY="0"
       refX="0"
       id="TriangleOutL"
       style="overflow:visible">
      <path
         id="path4412"
         d="m 5.77,0 -8.65,5 0,-10 8.65,5 z"
         style="fill-rule:evenodd;stroke:#000000;stroke-width:1pt;marker-start:none"
         transform="scale(0.8,0.8)"
         inkscape:connector-curvature="0" />
    </marker>
  </defs>
  <sodipodi:namedview
     pagecolor="#ffffff"
     bordercolor="#666666"
     borderopacity="1"
     objecttolerance="10"
     gridtolerance="10"
     guidetolerance="10"
     inkscape:pageopacity="0"
     inkscape:pageshadow="2"
     inkscape:window-width="1440"
     inkscape:window-height="852"
     id="namedview307"
     showgrid="false"
     inkscape:zoom="0.81557924"
     inkscape:cx="569.46875"
     inkscape:cy="364.77142"
     inkscape:window-x="0"
     inkscape:window-y="0"
     inkscape:window-maximized="1"
     inkscape:current-layer="svg2"
     fit-margin-top="0.5"
     fit-margin-left="0.5"
     fit-margin-right="0.5"
     fit-margin-bottom="0.5"
     inkscape:object-nodes="false"
     units="in" />
  <g
     class="edge"
     id="edge20"
     transform="translate(-1283.8051,557.39504)">
    <title
       id="title267">Leading-&gt;Prepare</title>
    <path
       style="fill:none;stroke:#000000;marker-end:url(#TriangleOutL);marker-mid:url(#TriangleOutL)"
       inkscape:connector-curvature="0"
       id="path269"
       d="m 2091.6482,-409.00399 c -11.8972,28.34751 -23.233,31.98374 -61.0635,30.81642 -72.7176,-0.16144 -144.6212,1.61587 -184.386,-2.42262 -16.353,-1.66081 -47.7204,4.01111 -58.872,-20.14654"
       sodipodi:nodetypes="ccsc" />
    <text
       style="font-size:14px;text-anchor:middle;font-family:Verdana"
       id="text273"
       font-size="14.00"
       y="-384.65588"
       x="2016.6086">KV failure</text>
  </g>
  <g
     id="g6785"
     transform="translate(-190.2057,-31.124959)">
    <path
       style="fill:none;stroke:#000000;marker-start:none;marker-end:url(#TriangleOutL)"
       inkscape:connector-curvature="0"
       id="path156"
       d="m 624.73431,366.28018 c 12.83191,-23.47571 34.78194,-66.3002 36.97093,-91.09214 1.77698,-20.12571 9.35137,-36.49863 -2.28337,-81.97217"
       sodipodi:nodetypes="csc" />
    <text
       sodipodi:linespacing="125%"
       id="text6779"
       y="281.59802"
       x="603.44891"
       style="font-size:14px;font-style:normal;font-variant:normal;font-weight:normal;font-stretch:normal;text-align:center;line-height:125%;letter-spacing:0px;word-spacing:0px;text-anchor:middle;fill:#000000;fill-opacity:1;stroke:none;font-family:Verdana;-inkscape-font-specification:Verdana"
       xml:space="preserve"><tspan
         y="281.59802"
         x="603.44891"
         id="tspan6781"
         sodipodi:role="line">Election</tspan><tspan
         id="tspan6783"
         y="299.09802"
         x="603.44891"
         sodipodi:role="line">time out,</tspan><tspan
         y="316.59802"
         x="603.44891"
         sodipodi:role="line"
         id="tspan7168">send prepare</tspan></text>
  </g>
  <g
     id="g9950"
     transform="translate(-190.2057,-31.124959)">
    <g
       transform="translate(72,556.715)"
       id="edge13"
       class="edge">
      <title
         id="title199">Prefollow-&gt;Probe</title>
      <path
         sodipodi:nodetypes="cccc"
         d="m 715.94145,-195.36507 c 2.81954,-16.53391 -6.67706,-24.76853 -28.39331,-31.46078 -36.86016,-10.29425 -252.86358,9.43612 -328.10682,-1.10776 -17.99333,-1.06358 -20.30508,-3.00208 -31.95236,-16.72272"
         id="path201"
         inkscape:connector-curvature="0"
         style="fill:none;stroke:#000000;marker-end:url(#TriangleOutL);marker-mid:url(#TriangleOutL)" />
    </g>
    <text
       sodipodi:linespacing="125%"
       id="text9946"
       y="321.00452"
       x="688.64893"
       style="font-size:14px;font-style:normal;font-variant:normal;font-weight:normal;font-stretch:normal;line-height:125%;letter-spacing:0px;word-spacing:0px;fill:#000000;fill-opacity:1;stroke:none;font-family:Verdana;-inkscape-font-specification:Verdana"
       xml:space="preserve"><tspan
         y="321.00452"
         x="688.64893"
         id="tspan9948"
         sodipodi:role="line">Time out</tspan></text>
  </g>
  <g
     id="g5465"
     transform="translate(-1067.3052,-35.638959)">
    <path
       style="fill:none;stroke:#000000;marker-end:url(#TriangleOutL)"
       inkscape:connector-curvature="0"
       id="path131"
       d="m 1523.13,377.964 c 22.2816,-1.91423 72.1798,0.9125 92.2969,0.47777"
       sodipodi:nodetypes="cc" />
    <text
       sodipodi:linespacing="125%"
       id="text5461"
       y="367.16913"
       x="1536.4272"
       style="font-size:14px;font-style:normal;font-variant:normal;font-weight:normal;font-stretch:normal;line-height:125%;letter-spacing:0px;word-spacing:0px;fill:#000000;fill-opacity:1;stroke:none;font-family:Verdana;-inkscape-font-specification:Verdana"
       xml:space="preserve"><tspan
         y="367.16913"
         x="1536.4272"
         id="tspan5463"
         sodipodi:role="line">Got prepare</tspan></text>
  </g>
  <path
     sodipodi:nodetypes="csccc"
     d="m 782.0386,362.93672 c 5.99211,16.0431 -0.89496,50.7954 -1.54249,60.52201 -4.60945,69.23871 -34.39044,38.9165 -217.41799,47.01715 -96.75568,1.18972 -348.64717,7.54822 -393.39436,-9.269 -54.99817,-32.97377 -27.94933,-139.9068 -21.33632,-177.25132"
     id="path165"
     inkscape:connector-curvature="0"
     style="fill:none;stroke:#000000;marker-mid:url(#TriangleOutL);marker-end:url(#TriangleOutL)" />
  <g
     class="node"
     id="node1"
     transform="translate(19.394299,525.59004)">
    <title
       id="title10">Setup</title>
    <ellipse
       style="fill:#ffccaa;stroke:#000000"
       sodipodi:ry="18"
       sodipodi:rx="37.894299"
       sodipodi:cy="-258.66501"
       sodipodi:cx="55"
       id="ellipse12"
       ry="18"
       rx="37.894299"
       cy="-258.66501"
       cx="55"
       d="m 92.894299,-258.66501 c 0,9.94113 -16.965856,18 -37.894299,18 -20.928443,0 -37.894299,-8.05887 -37.894299,-18 0,-9.94112 16.965856,-18 37.894299,-18 20.928443,0 37.894299,8.05888 37.894299,18 z" />
    <text
       style="font-size:14px;text-anchor:middle;font-family:Verdana"
       id="text14"
       font-size="14.00"
       y="-254.965"
       x="55">Setup</text>
  </g>
  <g
     class="edge"
     id="edge1"
     transform="translate(-118.2057,525.59004)">
    <title
       id="title24">Setup-&gt;Probe</title>
    <path
       style="fill:none;stroke:#000000;marker-end:url(#TriangleOutL)"
       inkscape:connector-curvature="0"
       id="path26"
       d="m 230.475,-258.665 c 3.22266,0.20037 16.59939,0 20.85,0"
       sodipodi:nodetypes="cc" />
  </g>
  <g
     class="node"
     id="node4"
     transform="translate(-994.6315,523.13104)">
    <title
       id="title47">Election</title>
    <ellipse
       style="fill:#ffccaa;stroke:#000000"
       sodipodi:ry="18"
       sodipodi:rx="46.592602"
       sodipodi:cy="-177.66499"
       sodipodi:cx="1404"
       id="ellipse49"
       ry="18"
       rx="46.592602"
       cy="-177.66499"
       cx="1404"
       d="m 1450.5926,-177.66499 c 0,9.94112 -20.8602,18 -46.5926,18 -25.7324,0 -46.5926,-8.05888 -46.5926,-18 0,-9.94113 20.8602,-18 46.5926,-18 25.7324,0 46.5926,8.05887 46.5926,18 z" />
    <text
       style="font-size:14px;text-anchor:middle;font-family:Verdana"
       id="text51"
       font-size="14.00"
       y="-173.965"
       x="1404">Election</text>
  </g>
  <path
     d="m 185.25298,281.2619 c 5.95483,18.53278 3.25625,42.61283 10.6356,51.74966 22.06585,18.31355 118.50309,11.02414 161.31532,12.26048"
     id="path56"
     inkscape:connector-curvature="0"
     style="fill:none;stroke:#000000;marker-start:none;marker-mid:url(#TriangleOutL);marker-end:url(#TriangleOutL)"
     sodipodi:nodetypes="ccc" />
  <g
     class="node"
     id="node5"
     transform="translate(-1365.3768,517.40504)">
    <title
       id="title63">Following</title>
    <ellipse
       style="fill:#ffccaa;stroke:#000000"
       sodipodi:ry="18"
       sodipodi:rx="53.091301"
       sodipodi:cy="-168.66499"
       sodipodi:cx="2152"
       id="ellipse65"
       ry="18"
       rx="53.091301"
       cy="-168.66499"
       cx="2152"
       d="m 2205.0913,-168.66499 c 0,9.94112 -23.7698,18 -53.0913,18 -29.3215,0 -53.0913,-8.05888 -53.0913,-18 0,-9.94113 23.7698,-18 53.0913,-18 29.3215,0 53.0913,8.05887 53.0913,18 z" />
    <text
       style="font-size:14px;text-anchor:middle;font-family:Verdana"
       id="text67"
       font-size="14.00"
       y="-164.965"
       x="2152">Following</text>
  </g>
  <path
     sodipodi:nodetypes="csccsc"
     d="m 171.09037,283.21083 c 2.79442,30.64734 0.21398,70.7439 10.50151,91.05393 10.99617,21.70903 35.31379,21.54358 52.20242,23.66028 71.95221,-0.59136 28.67446,0.63053 349.97571,5.3169 52.80376,0 110.43157,-0.96853 138.14359,-6.99181 35.71667,-7.76312 33.96435,-21.59427 36.5269,-28.11609"
     id="path72"
     inkscape:connector-curvature="0"
     style="fill:none;stroke:#000000;marker-start:none;marker-end:url(#TriangleOutL);marker-mid:url(#TriangleOutL)" />
  <path
     sodipodi:nodetypes="cccc"
     d="m 160.10387,281.34234 c -5.71931,37.05853 -6.84918,101.66756 6.79243,138.75981 14.44892,40.57168 120.47578,21.70995 169.4962,36.30243 21.3961,7.051 9.51077,55.06436 38.96078,59.90636"
     id="path88"
     inkscape:connector-curvature="0"
     style="fill:none;stroke:#000000;marker-start:none;marker-mid:url(#TriangleOutL);marker-end:url(#TriangleOutL)" />
  <g
     class="edge"
     id="edge9"
     transform="translate(-118.2057,525.59004)">
    <title
       id="title95">Pending-&gt;Probe</title>
    <path
       style="fill:none;stroke:#000000;marker-end:url(#TriangleOutL)"
       inkscape:connector-curvature="0"
       id="path97"
       d="m 420.01746,-313.37068 c -4.38053,8.71916 -8.84699,21.5883 -14.02286,21.68028 -68.08642,1.20992 -58.69278,-3.07088 -58.9621,15.61162 -0.15669,10.86979 4.62666,20.45747 -11.79952,17.80727"
       sodipodi:nodetypes="cssc" />
    <text
       style="font-size:14px;text-anchor:middle;font-family:Verdana"
       id="text101"
       font-size="14.00"
       y="-297.14023"
       x="371.22684">Time out</text>
  </g>
  <g
     class="node"
     id="node7"
     transform="translate(-1166.5052,569.07604)">
    <title
       id="title104">Prefollow</title>
    <ellipse
       style="fill:#ffccaa;stroke:#000000"
       sodipodi:ry="18"
       sodipodi:rx="51.990799"
       sodipodi:cy="-225.66499"
       sodipodi:cx="1769"
       id="ellipse106"
       ry="18"
       rx="51.990799"
       cy="-225.66499"
       cx="1769"
       d="m 1820.9908,-225.66499 c 0,9.94112 -23.2771,18 -51.9908,18 -28.7137,0 -51.9908,-8.05888 -51.9908,-18 0,-9.94113 23.2771,-18 51.9908,-18 28.7137,0 51.9908,8.05887 51.9908,18 z" />
    <text
       style="font-size:14px;text-anchor:middle;font-family:Verdana"
       id="text108"
       font-size="14.00"
       y="-221.965"
       x="1769">Prefollow</text>
  </g>
  <path
     sodipodi:nodetypes="csc"
     d="m 360.49463,211.93153 c 83.90014,9.983 187.06864,-8.53649 235.13644,14.27251 34.0975,16.18 18.24272,76.05451 17.2066,95.50151"
     id="path122"
     inkscape:connector-curvature="0"
     style="fill:none;stroke:#000000;marker-end:url(#TriangleOutL);marker-mid:url(#TriangleOutL)" />
  <g
     class="edge"
     id="edge7"
     transform="translate(-262.57855,529.02504)">
    <title
       id="title138">Election-&gt;Following</title>
    <path
       style="fill:none;stroke:#000000;marker-end:url(#TriangleOutL);marker-mid:url(#TriangleOutL)"
       inkscape:connector-curvature="0"
       id="path140"
       d="m 696.23871,-168.33901 c 4.24407,4.10898 13.99603,22.24418 23.96367,24.06529 22.60699,4.13035 31.54351,0.9179 128.11881,2.08298 125.03251,1.50838 138.11747,-3.87916 153.99361,-24.66153"
       sodipodi:nodetypes="cssc" />
    <text
       style="font-size:14px;text-anchor:middle;font-family:Verdana"
       id="text144"
       font-size="14.00"
       y="-146.64369"
       x="768.86987">Got commit</text>
  </g>
  <path
     sodipodi:nodetypes="ccc"
     d="m 441.03979,132.57404 c -163.23519,-8.066 -222.25171,-8.704 -242.24205,23.861 -13.48107,10.671 -26.37756,70.98 -25.70321,87.815"
     id="path210"
     inkscape:connector-curvature="0"
     style="fill:none;stroke:#000000;marker-end:url(#TriangleOutL);marker-mid:url(#TriangleOutL)" />
  <g
     class="node"
     id="node8"
     transform="translate(-1289.4057,511.19004)">
    <title
       id="title147">Prepare</title>
    <ellipse
       style="fill:#ffccaa;stroke:#000000"
       sodipodi:ry="18"
       sodipodi:rx="46.292301"
       sodipodi:cy="-372.66501"
       sodipodi:cx="1769"
       id="ellipse149"
       ry="18"
       rx="46.292301"
       cy="-372.66501"
       cx="1769"
       d="m 1815.2923,-372.66501 c 0,9.94113 -20.7258,18 -46.2923,18 -25.5665,0 -46.2923,-8.05887 -46.2923,-18 0,-9.94112 20.7258,-18 46.2923,-18 25.5665,0 46.2923,8.05888 46.2923,18 z" />
    <text
       style="font-size:14px;text-anchor:middle;font-family:Verdana"
       id="text151"
       font-size="14.00"
       y="-368.965"
       x="1769">Prepare</text>
  </g>
  <g
     class="edge"
     id="edge21"
     transform="translate(-118.2057,525.59004)">
    <title
       id="title172">Exchange-&gt;Election</title>
    <path
       style="fill:none;stroke:#000000;marker-mid:url(#TriangleOutL);marker-end:url(#TriangleOutL)"
       inkscape:connector-curvature="0"
       id="path174"
       d="M 590.56522,-7.3935867 C 615.9213,-41.156644 556.55797,-32.783076 543.85206,-74.658694 536.51324,-98.845701 526.12101,-124.5845 523.80237,-159.88594"
       sodipodi:nodetypes="csc" />
  </g>
  <path
     sodipodi:nodetypes="ccc"
     d="m 444.10672,517.41332 c 4.59692,-46.31121 -215.87159,-3.24128 -297.81211,-48.96628 -50.205691,-48.089 -18.95688,-172.6189 -6.15197,-188.76536"
     id="path183"
     inkscape:connector-curvature="0"
     style="fill:none;stroke:#000000;marker-end:url(#TriangleOutL);marker-mid:url(#TriangleOutL)" />
  <text
     x="396.08798"
     y="490.87552"
     font-size="14.00"
     id="text187"
     style="font-size:14px;text-anchor:middle;font-family:Verdana">Failed</text>
  <text
     x="404.51886"
     y="113.55052"
     font-size="14.00"
     id="text214"
     style="font-size:14px;text-anchor:middle;font-family:Verdana">Time out</text>
  <path
     sodipodi:nodetypes="cssc"
     d="M 645.27567,121.83204 C 641.68643,73.428041 521.04037,87.134041 471.71992,88.520041 c -89.65204,2.52 -241.83793,-6.007 -269.15646,30.534999 -24.54402,32.83 -39.95073,100.448 -40.1409,126.027"
     id="path251"
     inkscape:connector-curvature="0"
     style="fill:none;stroke:#000000;marker-end:url(#TriangleOutL);marker-mid:url(#TriangleOutL)" />
  <text
     x="592.81616"
     y="79.144272"
     font-size="14.00"
     id="text255"
     style="font-size:14px;text-anchor:middle;font-family:Verdana">Time out</text>
  <path
     sodipodi:nodetypes="cssc"
     d="m 837.12882,120.85104 c -0.2582,-13.426 -9.7919,-48.497999 -67.2914,-53.415999 -66.88563,-5.719 -548.53979,-37.94 -586.69092,41.097999 -21.25245,44.029 -33.64479,102.241 -29.17733,137.881"
     id="path260"
     inkscape:connector-curvature="0"
     style="fill:none;stroke:#000000;marker-end:url(#TriangleOutL);marker-mid:url(#TriangleOutL)" />
  <text
     x="677.11005"
     y="46.495834"
     font-size="14.00"
     id="text264"
     style="font-size:14px;text-anchor:middle;font-family:Verdana">Most failures</text>
  <g
     class="node"
     id="node11"
     transform="translate(-38.2057,653.59004)">
    <title
       id="title276">Repair</title>
    <ellipse
       style="fill:#ffccaa;stroke:#000000"
       sodipodi:ry="18"
       sodipodi:rx="40.093899"
       sodipodi:cy="-124.665"
       sodipodi:cx="293"
       id="ellipse278"
       ry="18"
       rx="40.093899"
       cy="-124.665"
       cx="293"
       d="m 333.0939,-124.665 c 0,9.94112 -17.95065,18 -40.0939,18 -22.14325,0 -40.0939,-8.05888 -40.0939,-18 0,-9.94113 17.95065,-18 40.0939,-18 22.14325,0 40.0939,8.05887 40.0939,18 z" />
    <text
       style="font-size:14px;text-anchor:middle;font-family:Verdana"
       id="text280"
       font-size="14.00"
       y="-120.965"
       x="293">Repair</text>
  </g>
  <g
     id="g8280"
     transform="translate(-142.2057,-31.124959)">
    <path
       style="fill:none;stroke:#000000;marker-end:url(#TriangleOutL)"
       inkscape:connector-curvature="0"
       id="path285"
       d="m 437.282,558.519 c 21.70061,-0.7546 62.43898,1.74049 74.90989,-1.57231"
       sodipodi:nodetypes="cc" />
  </g>
  <g
     id="g5074"
     transform="translate(-107.0057,96.875041)">
    <path
       sodipodi:nodetypes="cc"
       style="fill:none;stroke:#000000;marker-end:url(#TriangleOutL)"
       inkscape:connector-curvature="0"
       id="path301"
       d="m 272.039,432.05 c 39.693,0 5.062,0 43.656,0" />
    <text
       sodipodi:linespacing="125%"
       id="text3489"
       y="401.78076"
       x="295.93698"
       style="font-size:14px;font-style:normal;font-variant:normal;font-weight:normal;font-stretch:normal;text-align:center;line-height:125%;letter-spacing:0px;word-spacing:0px;text-anchor:middle;fill:#000000;fill-opacity:1;stroke:none;font-family:Verdana;-inkscape-font-specification:Verdana"
       xml:space="preserve"><tspan
         y="401.78076"
         x="295.93698"
         id="tspan3491"
         sodipodi:role="line">Tree</tspan><tspan
         id="tspan3493"
         y="419.28076"
         x="295.93698"
         sodipodi:role="line">corrupted</tspan></text>
  </g>
  <g
     id="g5089"
     transform="translate(-190.2057,-31.124959)">
    <path
       style="fill:none;stroke:#000000;marker-end:url(#TriangleOutL)"
       inkscape:connector-curvature="0"
       id="path40"
       d="m 377.02007,282.69373 c -1.53835,-14.1926 -6.10393,-36.42776 11.9621,-50.8138 22.25765,-11.87923 78.42044,-5.90339 87.62667,-6.25092"
       sodipodi:nodetypes="ccc" />
    <text
       sodipodi:linespacing="125%"
       id="text5083"
       y="219.82791"
       x="430.05112"
       style="font-size:14px;font-style:normal;font-variant:normal;font-weight:normal;font-stretch:normal;text-align:center;line-height:125%;letter-spacing:0px;word-spacing:0px;text-anchor:middle;fill:#000000;fill-opacity:1;stroke:none;font-family:Verdana;-inkscape-font-specification:Verdana"
       xml:space="preserve"><tspan
         id="tspan5087"
         y="219.82791"
         x="430.05112"
         sodipodi:role="line">Is pending</tspan></text>
  </g>
  <g
     id="g6791"
     transform="translate(-1094.9768,-36.109959)">
    <path
       sodipodi:nodetypes="cc"
       style="fill:none;stroke:#000000;marker-end:url(#TriangleOutL)"
       inkscape:connector-curvature="0"
       id="path192"
       d="m 1750.6195,383.19702 c 21.951,-0.64916 43.2669,3.38735 73.0173,1.36532" />
    <text
       sodipodi:linespacing="125%"
       id="text5657"
       y="377.12006"
       x="1750.7903"
       style="font-size:14px;font-style:normal;font-variant:normal;font-weight:normal;font-stretch:normal;line-height:125%;letter-spacing:0px;word-spacing:0px;fill:#000000;fill-opacity:1;stroke:none;font-family:Verdana;-inkscape-font-specification:Verdana"
       xml:space="preserve"><tspan
         y="377.12006"
         x="1750.7903"
         id="tspan5659"
         sodipodi:role="line">Got epoch</tspan></text>
  </g>
  <g
     id="g11235"
     transform="translate(8.8030006,27.936041)">
    <path
       style="fill:none;stroke:#000000;marker-end:url(#TriangleOutL);marker-mid:url(#TriangleOutL)"
       inkscape:connector-curvature="0"
       id="path113"
       d="m 339.58423,158.85383 c 23.48598,-8.9088 187.85854,0.83038 214.30975,4.21888 17.51534,2.24378 109.47963,-0.59535 141.39685,20.06112 44.77622,28.97867 17.8651,92.43325 41.91919,120.95165"
       sodipodi:nodetypes="cssc" />
    <text
       sodipodi:linespacing="125%"
       id="text6391"
       y="148.68689"
       x="367.20261"
       style="font-size:14px;font-style:normal;font-variant:normal;font-weight:normal;font-stretch:normal;line-height:125%;letter-spacing:0px;word-spacing:0px;fill:#000000;fill-opacity:1;stroke:none;font-family:Verdana;-inkscape-font-specification:Verdana"
       xml:space="preserve"><tspan
         y="148.68689"
         x="367.20261"
         id="tspan6393"
         sodipodi:role="line">Got commit</tspan></text>
  </g>
  <g
     id="g7716"
     transform="translate(-943.62569,-47.651959)">
    <path
       style="fill:none;stroke:#000000;marker-end:url(#TriangleOutL)"
       inkscape:connector-curvature="0"
       id="path242"
       d="m 1639.9424,184.31931 c 54.49,0 23.0085,0.98757 82.2285,0.98757"
       sodipodi:nodetypes="cc" />
    <text
       sodipodi:linespacing="125%"
       id="text6398"
       y="145.52585"
       x="1678.9302"
       style="font-size:14px;font-style:normal;font-variant:normal;font-weight:normal;font-stretch:normal;text-align:center;line-height:125%;letter-spacing:0px;word-spacing:0px;text-anchor:middle;fill:#000000;fill-opacity:1;stroke:none;font-family:Verdana;-inkscape-font-specification:Verdana"
       xml:space="preserve"><tspan
         y="145.52585"
         x="1678.9302"
         id="tspan6400"
         sodipodi:role="line">Quorum</tspan><tspan
         id="tspan6402"
         y="163.02585"
         x="1678.9302"
         sodipodi:role="line">accepted</tspan><tspan
         id="tspan6404"
         y="180.52585"
         x="1678.9302"
         sodipodi:role="line">new epoch</tspan></text>
  </g>
  <text
     xml:space="preserve"
     style="font-size:14px;font-style:normal;font-variant:normal;font-weight:normal;font-stretch:normal;text-align:center;line-height:125%;letter-spacing:0px;word-spacing:0px;text-anchor:middle;fill:#000000;fill-opacity:1;stroke:none;font-family:Verdana;-inkscape-font-specification:Verdana"
     x="256.53644"
     y="318.67133"
     id="text6409"
     sodipodi:linespacing="125%"><tspan
       sodipodi:role="line"
       id="tspan6411"
       x="256.53644"
       y="318.67133">Quorum,</tspan><tspan
       sodipodi:role="line"
       x="256.53644"
       y="336.17133"
       id="tspan6413">no leader</tspan></text>
  <text
     xml:space="preserve"
     style="font-size:14px;font-style:normal;font-variant:normal;font-weight:normal;font-stretch:normal;text-align:center;line-height:125%;letter-spacing:0px;word-spacing:0px;text-anchor:middle;fill:#000000;fill-opacity:1;stroke:none;font-family:Verdana;-inkscape-font-specification:Verdana"
     x="256.93634"
     y="369.35492"
     id="text6796"
     sodipodi:linespacing="125%"><tspan
       sodipodi:role="line"
       id="tspan6798"
       x="256.93634"
       y="369.35492">Quorum,</tspan><tspan
       sodipodi:role="line"
       x="256.93634"
       y="386.85492"
       id="tspan6800">found leader</tspan></text>
  <g
     id="g8840"
     transform="translate(-366.2057,-45.524959)">
    <path
       style="fill:none;stroke:#000000;marker-end:url(#TriangleOutL)"
       inkscape:connector-curvature="0"
       id="path226"
       d="m 891.21316,186.97109 c 22.2657,-1.85943 56.7003,-2.86891 76.8631,-2.86196"
       sodipodi:nodetypes="cc" />
    <text
       sodipodi:linespacing="125%"
       id="text7725"
       y="156.75594"
       x="932.81268"
       style="font-size:14px;font-style:normal;font-variant:normal;font-weight:normal;font-stretch:normal;text-align:center;line-height:125%;letter-spacing:0px;word-spacing:0px;text-anchor:middle;fill:#000000;fill-opacity:1;stroke:none;font-family:Verdana;-inkscape-font-specification:Verdana"
       xml:space="preserve"><tspan
         y="156.75594"
         x="932.81268"
         id="tspan7727"
         sodipodi:role="line">Quorum,</tspan><tspan
         id="tspan7729"
         y="174.25594"
         x="932.81268"
         sodipodi:role="line">send epoch</tspan></text>
  </g>
  <text
     xml:space="preserve"
     style="font-size:14px;font-style:normal;font-variant:normal;font-weight:normal;font-stretch:normal;text-align:center;line-height:125%;letter-spacing:0px;word-spacing:0px;text-anchor:middle;fill:#000000;fill-opacity:1;stroke:none;font-family:Verdana;-inkscape-font-specification:Verdana"
     x="257.60968"
     y="420.54242"
     id="text8286"
     sodipodi:linespacing="125%"><tspan
       sodipodi:role="line"
       id="tspan8288"
       x="257.60968"
       y="420.54242">Quorum,</tspan><tspan
       sodipodi:role="line"
       x="257.60968"
       y="438.04242"
       id="tspan8290">tree untrusted</tspan></text>
  <text
     xml:space="preserve"
     style="font-size:14px;font-style:normal;font-variant:normal;font-weight:normal;font-stretch:normal;line-height:125%;letter-spacing:0px;word-spacing:0px;fill:#000000;fill-opacity:1;stroke:none;font-family:Verdana;-inkscape-font-specification:Verdana"
     x="385.38324"
     y="207.04823"
     id="text9578"
     sodipodi:linespacing="125%"><tspan
       sodipodi:role="line"
       id="tspan9580"
       x="385.38324"
       y="207.04823">Got prepare</tspan></text>
  <g
     class="node"
     id="node3"
     transform="translate(-784.37452,468.71404)">
    <title
       id="title31">Pending</title>
    <ellipse
       style="fill:#ffccaa;stroke:#000000"
       sodipodi:ry="18"
       sodipodi:rx="46.592602"
       sodipodi:cy="-267.66501"
       sodipodi:cx="1120"
       id="ellipse33"
       ry="18"
       rx="46.592602"
       cy="-267.66501"
       cx="1120"
       d="m 1166.5926,-267.66501 c 0,9.94113 -20.8602,18 -46.5926,18 -25.7324,0 -46.5926,-8.05887 -46.5926,-18 0,-9.94112 20.8602,-18 46.5926,-18 25.7324,0 46.5926,8.05888 46.5926,18 z" />
    <text
       style="font-size:14px;text-anchor:middle;font-family:Verdana"
       id="text35"
       font-size="14.00"
       y="-263.965"
       x="1120">Pending</text>
  </g>
  <g
     class="node"
     id="node2"
     transform="translate(-118.2057,525.59004)">
    <title
       id="title17">Probe</title>
    <ellipse
       style="fill:#ffccaa;stroke:#000000"
       sodipodi:ry="18"
       sodipodi:rx="36.2938"
       sodipodi:cy="-258.66501"
       sodipodi:cx="293"
       id="ellipse19"
       ry="18"
       rx="36.2938"
       cy="-258.66501"
       cx="293"
       d="m 329.2938,-258.66501 c 0,9.94113 -16.24929,18 -36.2938,18 -20.04451,0 -36.2938,-8.05887 -36.2938,-18 0,-9.94112 16.24929,-18 36.2938,-18 20.04451,0 36.2938,8.05888 36.2938,18 z" />
    <text
       style="font-size:14px;text-anchor:middle;font-family:Verdana"
       id="text21"
       font-size="14.00"
       y="-254.965"
       x="293">Probe</text>
  </g>
  <g
     class="node"
     id="node9"
     transform="translate(-1500.4474,547.06304)">
    <title
       id="title217">Prelead</title>
    <ellipse
       style="fill:#ffccaa;stroke:#000000"
       sodipodi:ry="18"
       sodipodi:rx="44.6926"
       sodipodi:cy="-410.66501"
       sodipodi:cx="2152"
       id="ellipse219"
       ry="18"
       rx="44.6926"
       cy="-410.66501"
       cx="2152"
       d="m 2196.6926,-410.66501 c 0,9.94113 -20.0096,18 -44.6926,18 -24.683,0 -44.6926,-8.05887 -44.6926,-18 0,-9.94112 20.0096,-18 44.6926,-18 24.683,0 44.6926,8.05888 44.6926,18 z" />
    <text
       style="font-size:14px;text-anchor:middle;font-family:Verdana"
       id="text221"
       font-size="14.00"
       y="-406.965"
       x="2152">Prelead</text>
  </g>
  <g
     class="node"
     id="node10"
     transform="translate(-1631.6423,547.92004)">
    <title
       id="title233">Leading</title>
    <ellipse
       style="fill:#ffccaa;stroke:#000000"
       sodipodi:ry="18"
       sodipodi:rx="46.292301"
       sodipodi:cy="-410.66501"
       sodipodi:cx="2460"
       id="ellipse235"
       ry="18"
       rx="46.292301"
       cy="-410.66501"
       cx="2460"
       d="m 2506.2923,-410.66501 c 0,9.94113 -20.7258,18 -46.2923,18 -25.5665,0 -46.2923,-8.05887 -46.2923,-18 0,-9.94112 20.7258,-18 46.2923,-18 25.5665,0 46.2923,8.05888 46.2923,18 z" />
    <text
       style="font-size:14px;text-anchor:middle;font-family:Verdana"
       id="text237"
       font-size="14.00"
       y="-406.965"
       x="2460">Leading</text>
  </g>
  <g
     class="node"
     id="node6"
     transform="translate(-388.53352,726.17101)">
    <title
       id="title79">Exchange</title>
    <ellipse
       style="fill:#ffccaa;stroke:#000000"
       sodipodi:ry="18"
       sodipodi:rx="54.690498"
       sodipodi:cy="-200.66499"
       sodipodi:cx="819"
       id="ellipse81"
       ry="18"
       rx="54.690498"
       cy="-200.66499"
       cx="819"
       d="m 873.6905,-200.66499 c 0,9.94112 -24.48577,18 -54.6905,18 -30.20473,0 -54.6905,-8.05888 -54.6905,-18 0,-9.94113 24.48577,-18 54.6905,-18 30.20473,0 54.6905,8.05887 54.6905,18 z" />
    <text
       style="font-size:14px;text-anchor:middle;font-family:Verdana"
       id="text83"
       font-size="14.00"
       y="-196.965"
       x="819">Exchange</text>
  </g>
  <g
     class="node"
     id="node12"
     transform="translate(57.794299,653.59004)">
    <title
       id="title292">Any State</title>
    <ellipse
       style="fill:#ffccaa;stroke:#000000"
       sodipodi:ry="18"
       sodipodi:rx="55.491299"
       sodipodi:cy="-124.665"
       sodipodi:cx="55"
       id="ellipse294"
       ry="18"
       rx="55.491299"
       cy="-124.665"
       cx="55"
       d="m 110.4913,-124.665 c 0,9.94112 -24.844302,18 -55.4913,18 -30.646998,0 -55.49129868,-8.05888 -55.49129868,-18 0,-9.94113 24.84430068,-18 55.49129868,-18 30.646998,0 55.4913,8.05887 55.4913,18 z" />
    <text
       style="font-size:14px;text-anchor:middle;font-family:Verdana"
       id="text296"
       font-size="14.00"
       y="-120.965"
       x="55">Any State</text>
  </g>
  <text
     xml:space="preserve"
     style="font-size:14px;font-style:normal;font-variant:normal;font-weight:normal;font-stretch:normal;text-align:center;line-height:125%;letter-spacing:0px;word-spacing:0px;text-anchor:middle;fill:#000000;fill-opacity:1;stroke:none;font-family:Verdana;-inkscape-font-specification:Verdana"
     x="666.409"
     y="445.19312"
     id="text15255"
     sodipodi:linespacing="125%"><tspan
       sodipodi:role="line"
       id="tspan15257"
       x="666.409"
       y="445.19312">Time out or</tspan><tspan
       sodipodi:role="line"
       x="666.409"
       y="462.69312"
       id="tspan15259">exchange failed</tspan></text>
</svg>
